/* XPM */
static char *_[] = {
/* columns rows colors chars-per-pixel */
"32 32 19 1 ",
"  c black",
". c #0C171F",
"X c gray12",
"o c #0D1A23",
"O c #12202A",
"+ c #1D2E30",
"@ c #182F3F",
"# c #282828",
"$ c #243A3C",
"% c #313131",
"& c #1E3C51",
"* c #2A4B62",
"= c #006478",
"- c #484848",
"; c #747474",
": c #00BDE4",
"> c #4CAFC4",
", c #00D3FF",
"< c #C0C0C0",
/* pixels */
"++++++++++++++++++++++++++++++++",
"+$$$$$$$$$$$$$$$$$$$$$$$$$$$$$$+",
"+$$$$$$$$$$$$$$$$$$$$$$$$$$$$$$+",
"+$$$$$$$$$$$$$$$$$$$$$$$$$$$$$$+",
"+$$$$$$$$$$$$$$$$$$$$$$$$$$$$$$+",
"+$$$$$$$$$$$$$$$$$$$$$$$$$$$$$$+",
"+$$$$$$$$$$$$$$$$$$$$$$$$$$$$$$+",
"+$$$$$$$$$$$$$$$$$$$$$$$$$$$$$$+",
"+$$$$$$$$$$$$$...$$.$$$$$$$$$$$+",
"+$$$$$$$$$$$$.**X..X.$$$$$$$$$$+",
"+$$$$$$$$$$$.***X,%X@.$$$$$$$$$+",
"+$$$$$$$$$$.**O&X%%Xo@.$$$$$$$$+",
"+$$$$$$$$$.***&&&X  X&@.$$$$$$$+",
"+$$$$$$$$$.#XXX&&X=< XX.$$$$$$$+",
"+$$$$$$$$$.-,%,XX>:>; .$$$$$$$$+",
"+$$$$$$$$$.#XXX =:,:=X.$$$$$$$$+",
"+$$$$$$$$$.**&&X<>:>Xo@.$$$$$$$+",
"+$$$$$$$$$.*O&X, ;=; X@.$$$$$$$+",
"+$$$$$$$$$$.*X%%XX  ,..$$$$$$$$+",
"+$$$$$$$$$$$.-,X&&X,%.$$$$$$$$$+",
"+$$$$$$$$$$$$.#*&o@X.$$$$$$$$$$+",
"+$$$$$$$$$$$$$......$$$$$$$$$$$+",
"+$$$$$$$$$$$$$$$$$$$$$$$$$$$$$$+",
"+$$$$$$$$$$$$$$$$$$$$$$$$$$$$$$+",
"+$$$$$$$$$$$$$$$$$$$$$$$$$$$$$$+",
"+$$$$$$$$$$$$$$$$$$$$$$$$$$$$$$+",
"+$$$$$$$$$$$$$$$$$$$$$$$$$$$$$$+",
"+$$$$$$$$$$$$$$$$$$$$$$$$$$$$$$+",
"+$$$$$$$$$$$$$$$$$$$$$$$$$$$$$$+",
"+$$$$$$$$$$$$$$$$$$$$$$$$$$$$$$+",
"+$$$$$$$$$$$$$$$$$$$$$$$$$$$$$$+",
"++++++++++++++++++++++++++++++++"
};
