/* XPM */
static char *_[] = {
/* columns rows colors chars-per-pixel */
"32 32 6 1 ",
"  c #180E0E",
". c #1D2E30",
"X c #243A3C",
"o c #5A595A",
"O c #B3B1B3",
"+ c white",
/* pixels */
"................................",
".XXXXXXXXXXXXXXXXXXXXXXXXXXXXXX.",
".XXXXXXXXXXXXXXXXXXXXXXXXXXXXXX.",
".XXXXXXXXXXXXXXXXXXXXXXXXXXXXXX.",
".XXXXXXXXXXXXXXXXXXXXXXXXXXXXXX.",
".XXXXXXXXXXXXXXXXXXXXXXXXXXXXXX.",
".XXXXXXXXXXXXXXXXXXXXXXXXXXXXXX.",
".XXXXXXXXXXXXXXXXXXXXXXXXXXXXXX.",
".XXXXXXXXXXXXX    XXXXXXXXXXXXX.",
".XXXXXXXXXXX  ++++  XXXXXXXXXXX.",
".XXXXXXXXXX ++OOOO++ XXXXXXXXXX.",
".XXXXXXXXX +OOOOO++O+ XXXXXXXXX.",
".XXXXXXXX +OOOO+++O+Oo XXXXXXXX.",
".XXXXXXXX +OOO+++o+OOo XXXXXXXX.",
".XXXXXXXX +OO+++O+OOOo XXXXXXXX.",
".XXXXXXXX +OO++O+oOOOo XXXXXXXX.",
".XXXXXXXX +O++++OoOOOo XXXXXXXX.",
".XXXXXXXX +++O+OOoOOOo XXXXXXXX.",
".XXXXXXXX ++O++OOoOOOo XXXXXXXX.",
".XXXXXXXX +O+OOooOOOOo XXXXXXXX.",
".XXXXXXXXX +OOOOOOOOo XXXXXXXXX.",
".XXXXXXXXXX ++OOOOoo XXXXXXXXXX.",
".XXXXXXXXXXX  oooo  XXXXXXXXXXX.",
".XXXXXXXXXXXXX    XXXXXXXXXXXXX.",
".XXXXXXXXXXXXXXXXXXXXXXXXXXXXXX.",
".XXXXXXXXXXXXXXXXXXXXXXXXXXXXXX.",
".XXXXXXXXXXXXXXXXXXXXXXXXXXXXXX.",
".XXXXXXXXXXXXXXXXXXXXXXXXXXXXXX.",
".XXXXXXXXXXXXXXXXXXXXXXXXXXXXXX.",
".XXXXXXXXXXXXXXXXXXXXXXXXXXXXXX.",
".XXXXXXXXXXXXXXXXXXXXXXXXXXXXXX.",
"................................"
};
