/* XPM */
static char *_[] = {
/* columns rows colors chars-per-pixel */
"32 32 6 1 ",
"  c #180E0E",
". c #1D2E30",
"X c #243A3C",
"o c #5A595A",
"O c #B3B1B3",
"+ c white",
/* pixels */
"................................",
".XXXXXXXXXXXXXXXXXXXXXXXXXXXXXX.",
".XXXXXXXXXXXXXXXXXXXXXXXXXXXXXX.",
".XXXXXXXXXXXXXXXXXXXXXXXXXXXXXX.",
".XXXXXXXXXXXXXXXXXXXXXXXXXXXXXX.",
".XXXXXXXXXXXXXXXXXXXXXXXXXXXXXX.",
".XXXXXXXXXXXXXXXXXXXXXXXXXXXXXX.",
".XXXXXXXXXXXXXXXXXXXXXXXXXXXXXX.",
".XXXXXXXXXXXXX    XXXXXXXXXXXXX.",
".XXXXXXXXXXXX ++++ XXXXXXXXXXXX.",
".XXXXXXXXXXX ++O+Oo XXXXXXXXXXX.",
".XXXXXXXXXXX +O+OOo XXXXXXXXXXX.",
".XXXXXXXXXX +O+++OOo XXXXXXXXXX.",
".XXXXXXXXXX ++O+oOOo XXXXXXXXXX.",
".XXXXXXXXXX +O++oOOo XXXXXXXXXX.",
".XXXXXXXXXX +OO+oOOo XXXXXXXXXX.",
".XXXXXXXXXX +OO+oOOo XXXXXXXXXX.",
".XXXXXXXXXX +OO+oOOo XXXXXXXXXX.",
".XXXXXXXXXX +OO+oOOo XXXXXXXXXX.",
".XXXXXXXXXX +OOooOOo XXXXXXXXXX.",
".XXXXXXXXXX +OOOOOOo XXXXXXXXXX.",
".XXXXXXXXXXX +OOOOo XXXXXXXXXXX.",
".XXXXXXXXXXXX oooo XXXXXXXXXXXX.",
".XXXXXXXXXXXXX    XXXXXXXXXXXXX.",
".XXXXXXXXXXXXXXXXXXXXXXXXXXXXXX.",
".XXXXXXXXXXXXXXXXXXXXXXXXXXXXXX.",
".XXXXXXXXXXXXXXXXXXXXXXXXXXXXXX.",
".XXXXXXXXXXXXXXXXXXXXXXXXXXXXXX.",
".XXXXXXXXXXXXXXXXXXXXXXXXXXXXXX.",
".XXXXXXXXXXXXXXXXXXXXXXXXXXXXXX.",
".XXXXXXXXXXXXXXXXXXXXXXXXXXXXXX.",
"................................"
};
