/* XPM */
static char *_[] = {
/* columns rows colors chars-per-pixel */
"32 32 6 1 ",
"  c #180E0E",
". c #1D2E30",
"X c #243A3C",
"o c #5A595A",
"O c #B3B1B3",
"+ c white",
/* pixels */
"................................",
".XXXXXXXXXXXXXXXXXXXXXXXXXXXXXX.",
".XXXXXXXXXXXXXXXXXXXXXXXXXXXXXX.",
".XXXXXXXXXXXXXXXXXXXXXXXXXXXXXX.",
".XXXXXXXXXXXXXXXXXXXXXXXXXXXXXX.",
".XXXXXXXXXXXXXXXXXXXXXXXXXXXXXX.",
".XXXXXXXXXXXXXXXXXXXXXXXXXXXXXX.",
".XXXXXXXXXXXXXXXXXXXXXXXXXXXXXX.",
".XXXXXXXXXXXXXX  XXXXXXXXXXXXXX.",
".XXXXXXXXXXXXX ++ XXXXXXXXXXXXX.",
".XXXXXXXXXXXXX +o XXXXXXXXXXXXX.",
".XXXXXXXXXXXXX +o XXXXXXXXXXXXX.",
".XXXXXXXXXXXX +OOo XXXXXXXXXXXX.",
".XXXXXXXXXXXX +Ooo XXXXXXXXXXXX.",
".XXXXXXXXXXXX +Ooo XXXXXXXXXXXX.",
".XXXXXXXXXXXX +Ooo XXXXXXXXXXXX.",
".XXXXXXXXXXXX +Ooo XXXXXXXXXXXX.",
".XXXXXXXXXXXX +Ooo XXXXXXXXXXXX.",
".XXXXXXXXXXXX +Ooo XXXXXXXXXXXX.",
".XXXXXXXXXXXX +ooo XXXXXXXXXXXX.",
".XXXXXXXXXXXXX Oo XXXXXXXXXXXXX.",
".XXXXXXXXXXXXX Oo XXXXXXXXXXXXX.",
".XXXXXXXXXXXXX oo XXXXXXXXXXXXX.",
".XXXXXXXXXXXXXX  XXXXXXXXXXXXXX.",
".XXXXXXXXXXXXXXXXXXXXXXXXXXXXXX.",
".XXXXXXXXXXXXXXXXXXXXXXXXXXXXXX.",
".XXXXXXXXXXXXXXXXXXXXXXXXXXXXXX.",
".XXXXXXXXXXXXXXXXXXXXXXXXXXXXXX.",
".XXXXXXXXXXXXXXXXXXXXXXXXXXXXXX.",
".XXXXXXXXXXXXXXXXXXXXXXXXXXXXXX.",
".XXXXXXXXXXXXXXXXXXXXXXXXXXXXXX.",
"................................"
};
