/* XPM */
static char *_[] = {
/* columns rows colors chars-per-pixel */
"32 32 6 1 ",
"  c #180E0E",
". c #1D2E30",
"X c #243A3C",
"o c #5A595A",
"O c #B3B1B3",
"+ c white",
/* pixels */
"................................",
".XXXXXXXXXXXXXXXXXXXXXXXXXXXXXX.",
".XXXXXXXXXXXXXXXXXXXXXXXXXXXXXX.",
".XXXXXXXXXXXXXXXXXXXXXXXXXXXXXX.",
".XXXXXXXXXXXXXXXXXXXXXXXXXXXXXX.",
".XXXXXXXXXXXXXXXXXXXXXXXXXXXXXX.",
".XXXXXXXXXXXXXXXXXXXXXXXXXXXXXX.",
".XXXXXXXXXXXXXXXXXXXXXXXXXXXXXX.",
".XXXXXXXXXXXXX    XXXXXXXXXXXXX.",
".XXXXXXXXXXXX ++++ XXXXXXXXXXXX.",
".XXXXXXXXXXX +OOOOo XXXXXXXXXXX.",
".XXXXXXXXXXX +OOOOo XXXXXXXXXXX.",
".XXXXXXXXXX +OO++OOo XXXXXXXXXX.",
".XXXXXXXXXX +OO+oOOo XXXXXXXXXX.",
".XXXXXXXXXX +O++oOOo XXXXXXXXXX.",
".XXXXXXXXXX +OO+oOOo XXXXXXXXXX.",
".XXXXXXXXXX +OO+oOOo XXXXXXXXXX.",
".XXXXXXXXXX +OO+oOO+ XXXXXXXXXX.",
".XXXXXXXXXX +OO+oO++ XXXXXXXXXX.",
".XXXXXXXXXX +OOoo++o XXXXXXXXXX.",
".XXXXXXXXXX +OOO++O+ XXXXXXXXXX.",
".XXXXXXXXXXX +O++O+ XXXXXXXXXXX.",
".XXXXXXXXXXXX ++o+ XXXXXXXXXXXX.",
".XXXXXXXXXXXXX    XXXXXXXXXXXXX.",
".XXXXXXXXXXXXXXXXXXXXXXXXXXXXXX.",
".XXXXXXXXXXXXXXXXXXXXXXXXXXXXXX.",
".XXXXXXXXXXXXXXXXXXXXXXXXXXXXXX.",
".XXXXXXXXXXXXXXXXXXXXXXXXXXXXXX.",
".XXXXXXXXXXXXXXXXXXXXXXXXXXXXXX.",
".XXXXXXXXXXXXXXXXXXXXXXXXXXXXXX.",
".XXXXXXXXXXXXXXXXXXXXXXXXXXXXXX.",
"................................"
};
