/* XPM */
static char *_[] = {
/* columns rows colors chars-per-pixel */
"32 32 6 1 ",
"  c #180E0E",
". c #1D2E30",
"X c #243A3C",
"o c #5A595A",
"O c #B3B1B3",
"+ c white",
/* pixels */
"................................",
".XXXXXXXXXXXXXXXXXXXXXXXXXXXXXX.",
".XXXXXXXXXXXXXXXXXXXXXXXXXXXXXX.",
".XXXXXXXXXXXXXXXXXXXXXXXXXXXXXX.",
".XXXXXXXXXXXXXXXXXXXXXXXXXXXXXX.",
".XXXXXXXXXXXXXXXXXXXXXXXXXXXXXX.",
".XXXXXXXXXXXXXXXXXXXXXXXXXXXXXX.",
".XXXXXXXXXXXXXXXXXXXXXXXXXXXXXX.",
".XXXXXXXXXXXXX    XXXXXXXXXXXXX.",
".XXXXXXXXXXX  ++++ XXXXXXXXXXXX.",
".XXXXXXXXXX ++OOOOO XXXXXXXXXXX.",
".XXXXXXXXX +OOOOOOOo XXXXXXXXXX.",
".XXXXXXXX +OOOO+OOO++ XXXXXXXXX.",
".XXXXXXXX +OOO+OoO++o XXXXXXXXX.",
".XXXXXXXX +OO+OOo++O+ XXXXXXXXX.",
".XXXXXXXX +OOO+O++O+o XXXXXXXXX.",
".XXXXXXXX +OOO+++O+Oo XXXXXXXXX.",
".XXXXXXXX +OOO++o+OOo XXXXXXXXX.",
".XXXXXXXX +OO++O+OOOo XXXXXXXXX.",
".XXXXXXXX +O++O+OOOOo XXXXXXXXX.",
".XXXXXXXXX ++O+OOOOo XXXXXXXXXX.",
".XXXXXXXXXX ++OOOOo XXXXXXXXXXX.",
".XXXXXXXXXXX  oooo XXXXXXXXXXXX.",
".XXXXXXXXXXXXX    XXXXXXXXXXXXX.",
".XXXXXXXXXXXXXXXXXXXXXXXXXXXXXX.",
".XXXXXXXXXXXXXXXXXXXXXXXXXXXXXX.",
".XXXXXXXXXXXXXXXXXXXXXXXXXXXXXX.",
".XXXXXXXXXXXXXXXXXXXXXXXXXXXXXX.",
".XXXXXXXXXXXXXXXXXXXXXXXXXXXXXX.",
".XXXXXXXXXXXXXXXXXXXXXXXXXXXXXX.",
".XXXXXXXXXXXXXXXXXXXXXXXXXXXXXX.",
"................................"
};
