/* XPM */
static char *_[] = {
/* columns rows colors chars-per-pixel */
"32 32 14 1 ",
"  c #1D2E30",
". c #243A3C",
"X c black",
"o c white",
"O c #DFEAE4",
"+ c #636A74",
"@ c #9DA4A9",
"# c #976944",
"$ c #492321",
"% c #C09068",
"& c #D1DCE0",
"* c #361630",
"= c #491D1E",
"- c #623124",
/* pixels */
"                                ",
" .............................. ",
" .............................. ",
" .............................. ",
" .............................. ",
" .............................. ",
" .............................. ",
" .............................. ",
" ..............XXX..XXXX....... ",
" .............XoOX..XooOX...... ",
" ............XoOXXXXXXooOX..... ",
" ............XoO+++++XooOX..... ",
" ............XO+@@@@+OOoOX..... ",
" ............X+@@@@@@+OOX...... ",
" ............X+@@@@@@++X....... ",
" .....XX.....X+##@+###+X....... ",
" ....X+$X.....X%X##XX%#X....... ",
" ..XX&@+$X....X%X%%XX#*X....... ",
" .X&&@@@+$X...X=#==##=*X....... ",
" .X&&@@@+$X...X=======*X....... ",
" ..X&&@@@$$X..X*=====*X........ ",
" ...X&&&X-$X...X*=***%%X....... ",
" ....XXX.X-$X..X#**##%%%X...... ",
" .........X$XXX#%##%%###X...... ",
" ..........X%%###%%#%#%%#X..... ",
" ..........X%%X#%%%%#%%%#X..... ",
" ...........XX$X####$$$XX...... ",
" .............XX---$**X........ ",
" ..............X$*X*---X....... ",
" .............X$$$XX---X....... ",
" .............................. ",
"                                "
};
