/* XPM */
static char *tresure01[] = {
/* columns rows colors chars-per-pixel */
"32 32 12 1 ",
"  c #1D2E30",
". c #243A3C",
"X c #3A324D",
"o c #ADC3CC",
"O c #63778F",
"+ c #514B6C",
"@ c #222233",
"# c #C7C4A2",
"$ c #E7E7CD",
"% c #A69878",
"& c #716558",
"* c white",
/* pixels */
"                                ",
" .............................. ",
" .............................. ",
" .............................. ",
" .............................. ",
" .............................. ",
" .............................. ",
" .............................. ",
" .............................. ",
" .....XoO+O+O+@OO@+O+O+OoX..... ",
" .....XooOo+oOXooXOo+oOooX..... ",
" .....XooOo+Oo+oo+oO+oOooX..... ",
" .....XooO+#$O+OO+O$#+OooX..... ",
" .....Xoo+#%#$%++%$#%#+ooX..... ",
" .....XooX%&%$$%%$$%&%XooX..... ",
" .....XooX&X%$$%%$$%X&XooX..... ",
" .....XoOXX%&######&%XXOoX..... ",
" .....XoOX+&#$$$$$$#&+XOoX..... ",
" .....Xo+X+%$&%$$%&$%+X+oX..... ",
" .....@O+@X&#%X##X%#&X@+O@..... ",
" .....@X@@@@&##$$##&@@@@X@..... ",
" .....@@+@@@X&#@@#&X@@@+@@..... ",
" .....@X@+OO+X%XX%X+OO+@X@..... ",
" .....@+XXX@@@&%%&@@@XXX+@..... ",
" .....@@+OOOO+XXXX+OOOO+@@..... ",
" .....@OX@@X+OOOOOO+X@@XO@..... ",
" .....@XOO+XXX@@@@XXX+OOX@..... ",
" ......@@@@@@@@@@@@@@@@@@...... ",
" .............................. ",
" .............................. ",
" .............................. ",
"                                "
};
