/* XPM */
static char *tresure02[] = {
/* columns rows colors chars-per-pixel */
"32 32 14 1 ",
"  c #1D2E30",
". c #243A3C",
"X c #3A324D",
"o c #ADC3CC",
"O c #63778F",
"+ c #514B6C",
"@ c #A69878",
"# c #C7C4A2",
"$ c #E7E7CD",
"% c #716558",
"& c #222233",
"* c #322448",
"= c #553170",
"- c white",
/* pixels */
"                                ",
" .............................. ",
" .............................. ",
" .............................. ",
" .....XoO+O@#$$$$$$#@O+OoX..... ",
" .....XX+X%#@@#$$#@@#%X+XX..... ",
" .....XOOO+XXX#&&#XXX+OOOX..... ",
" .....X+X+OOO+%@@%+OOO+X+X..... ",
" .....X+&&&&&&++++&&&&&&+X..... ",
" .....&X&&&&&&&&&&&&&&&&X&..... ",
" .....&X&&&&&&&&&&&&&&&&X&..... ",
" .....&X&&************&&X&..... ",
" .....&X&**************&X&..... ",
" .....&&&&&&&&&&&&&&&&&&&&..... ",
" .....&+&**************&+&..... ",
" .....&+&=**=******=**=&+&..... ",
" .....&+&==*==*==*==*==&+&..... ",
" .....&+&==*==*==*==*==&+&..... ",
" .....&O&=*&=&&&&&&=&*=&O&..... ",
" .....&O&*&&*&+OO+&*&&*&O&..... ",
" .....&OX&&&&+OXXO+&&&&XO&..... ",
" .....&&+X&&+XO++OX+&&X+&&..... ",
" .....&X&+OO+XXOOXX+OO+&X&..... ",
" .....&+XXX&&&&&&&&&&XXX+&..... ",
" .....&&+OOOOOOOOOOOOOO+&&..... ",
" .....&OX&&X++++++++X&&XO&..... ",
" .....&XOO+XXX&&&&XXX+OOX&..... ",
" ......&&&&&&&&&&&&&&&&&&...... ",
" .............................. ",
" .............................. ",
" .............................. ",
"                                "
};
