/* XPM */
static char *_[] = {
/* columns rows colors chars-per-pixel */
"32 32 59 1 ",
"  c #1D2E30",
". c #273B3B",
"X c #243A3C",
"o c #293C3B",
"O c #293C3C",
"+ c #2F3E3C",
"@ c #32403B",
"# c #32413C",
"$ c #35423C",
"% c #3A453C",
"& c #40473B",
"* c #42483A",
"= c #41483C",
"- c #474A3C",
"; c #484B3B",
": c #494C3B",
"> c #4E4E3C",
", c #53503B",
"< c #59533B",
"1 c #5E563B",
"2 c #59533C",
"3 c #60563B",
"4 c #63573C",
"5 c #64593B",
"6 c #695B3B",
"7 c #6D5C3A",
"8 c #695A3C",
"9 c #735F3D",
"0 c #73603B",
"q c #74603B",
"w c #75613C",
"e c #7C633C",
"r c #7E653C",
"t c #83673B",
"y c #84683B",
"u c #896A3B",
"i c #906C3A",
"p c #97713B",
"a c #99713B",
"s c #9D733B",
"d c #A3753B",
"f c #A6773B",
"g c #A7793B",
"h c #AC7A3B",
"j c #AE7C3B",
"k c #B27D3B",
"l c #B7803B",
"z c #BB823B",
"x c #BC833B",
"c c #C3863A",
"v c #C6863B",
"b c #C8883B",
"n c #CD8B3B",
"m c #D28C3B",
"M c #D78F3B",
"N c #D88F3A",
"B c #D7913B",
"V c #DA903A",
"C c #DD923B",
/* pixels */
"                                ",
" XXXXXXXXXXXXXXXXXXXXXXXXXXXXXX ",
" XXXXXXXXXXXXXXXXXXXXXXXXXXXXXX ",
" XXXXXXXXXXXXXXXXXXXXXXXXXXXXXX ",
" XXXXXXXXXXX*abCCVk:XXXXXXXXXXX ",
" XXXXXXXXXX2MCCCCCCNwXXXXXXXXXX ",
" XXXXXXXXX-BCCCCCCCCC=XXXXXXXXX ",
" XXXXXXXXXkCCCCCCCCCCm:XXXXXXXX ",
" XXXXXXXX:CCCCCCCCCCCC0XXXXXXXX ",
" XXXXXXXX5CCCCCCCCCCCC5XXXXXXXX ",
" XXXXXXXX3CCCCCCCCCCCCwXXXXXXXX ",
" XXXXXXXX>CCCCCCCCCCCCsXXXXXXXX ",
" XXXXXXXX&CCCCCCCCCCCCiXXXXXXXX ",
" XXXXXXXX%CCCCCjjCCCCCtXXXXXXXX ",
" XXXXXXXX$CCCCh--CCCCCpXXXXXXXX ",
" XXXXXXXX+CCCC9ooCCCCCuXXXXXXXX ",
" XXXXXXXX.CCCC1XXVCCCCeXXXXXXXX ",
" XXXXXXXXXMCCC1XXkCCCC7XXXXXXXX ",
" XXXXXXXXXbCCC1XXgCCCC2XXXXXXXX ",
" XXXXXXXXXzCCC4XXnCCCC&XXXXXXXX ",
" XXXXXXXXXsCCC8XXmCCCxXXXXXXXXX ",
" XXXXXXXXXqCCCd,,CCCC7XXXXXXXXX ",
" XXXXXXXXX2CCCn66CCCV+XXXXXXXXX ",
" XXXXXXXXX;CCCCccCCCb.XXXXXXXXX ",
" XXXXXXXXXOvCCCCCCCCrXXXXXXXXXX ",
" XXXXXXXXXX1yxCCCCCloXXXXXXXXXX ",
" XXXXXXXXXXXX<iCCCp:XXXXXXXXXXX ",
" XXXXXXXXXXXXX#CCfoXXXXXXXXXXXX ",
" XXXXXXXXXXXXXX$$@XXXXXXXXXXXXX ",
" XXXXXXXXXXXXXXXXXXXXXXXXXXXXXX ",
" XXXXXXXXXXXXXXXXXXXXXXXXXXXXXX ",
"                                "
};
