/* XPM */
static char *_[] = {
/* columns rows colors chars-per-pixel */
"32 32 43 1 ",
"  c #1D2E30",
". c #243A3C",
"X c #2D3F3B",
"o c #283C3C",
"O c #2F403B",
"+ c #36423B",
"@ c #31403C",
"# c #34423C",
"$ c #3F463B",
"% c #3C443C",
"& c #42483B",
"* c #464A3B",
"= c #484B3B",
"- c #4C4C3B",
"; c #4E4E3C",
": c #52503B",
"> c #55503A",
", c #5E563B",
"< c #5D553D",
"1 c #62583B",
"2 c #675A3B",
"3 c #6C5C3B",
"4 c #6C5C3C",
"5 c #735F3B",
"6 c #7D643A",
"7 c #88683B",
"8 c #8D6B3B",
"9 c #8F6C3B",
"0 c #97703B",
"q c #9D743A",
"w c #A2763A",
"e c #AF7C3B",
"r c #B9813B",
"t c #C2843B",
"y c #C7873B",
"u c #CA893B",
"i c #CD8A3A",
"p c #D08B3A",
"a c #D28C3B",
"s c #D58E3B",
"d c #D7903B",
"f c #DA903B",
"g c #DD923B",
/* pixels */
"                                ",
" .............................. ",
" .............................. ",
" .............................. ",
" ..............22rito.......... ",
" ............;7ffgguo.......... ",
" .........#8uggggggg........... ",
" .........@ggggggggs........... ",
" ..........qgpgggggd;.......... ",
" ..........=>#gggggg4.......... ",
" .............sggggg>.......... ",
" .............tggggg$.......... ",
" .............egggggo.......... ",
" .............qggggy........... ",
" .............9gggg0........... ",
" .............6gggg6........... ",
" .............3gggg0........... ",
" .............<gggg0........... ",
" .............-gggg5........... ",
" .............%gggg=........... ",
" .............Xgggg,........... ",
" ..............gggg1........... ",
" ..............gggg:........... ",
" ..............gggg&........... ",
" ..............ggag+........... ",
" ..............OOwa:........... ",
" ................o@*........... ",
" .............................. ",
" .............................. ",
" .............................. ",
" .............................. ",
"                                "
};
