/* XPM */
static char *_[] = {
/* columns rows colors chars-per-pixel */
"32 32 55 1 ",
"  c #1D2E30",
". c #273B3B",
"X c #243A3C",
"o c #293C3B",
"O c #2D3E3B",
"+ c #2B3D3C",
"@ c #2C3E3C",
"# c #303F3B",
"$ c #2F403B",
"% c #33403B",
"& c #36423B",
"* c #31403C",
"= c #35423C",
"- c #3B453B",
"; c #3D453C",
": c #41483C",
"> c #464A3C",
", c #4F4F3B",
"< c #5B543B",
"1 c #5E553B",
"2 c #5B533C",
"3 c #60563B",
"4 c #63563C",
"5 c #62583B",
"6 c #64593B",
"7 c #6E5D3B",
"8 c #715F3B",
"9 c #77613B",
"0 c #7E653C",
"q c #83663B",
"w c #8E6C3B",
"e c #926E3B",
"r c #9C723B",
"t c #9F743B",
"y c #A3763B",
"u c #A6773B",
"i c #A5783B",
"p c #AB7A3B",
"a c #AE7C3B",
"s c #B27D3B",
"d c #B67F3A",
"f c #B7803B",
"g c #BA813A",
"h c #BD833B",
"j c #C2843A",
"k c #C6863B",
"l c #C7893A",
"z c #CA893B",
"x c #CD8B3B",
"c c #D08B3A",
"v c #D28D3A",
"b c #D78F3B",
"n c #D7903B",
"m c #DA913B",
"M c #DD923B",
/* pixels */
"                                ",
" XXXXXXXXXXXXXXXXXXXXXXXXXXXXXX ",
" XXXXXXXXXXXXXXXXXXXXXXXXXXXXXX ",
" XXXXXXXXXXXXXXXXXXXXXXXXXXXXXX ",
" XXXXXXXXXX=wMMMMMd*XXXXXXXXXXX ",
" XXXXXXXXX>hMMMMMMMiOXXXXXXXXXX ",
" XXXXXXXX+xMMMMMMMMMg%XXXXXXXXX ",
" XXXXXXXXeMMMMMMMMMMMwXXXXXXXXX ",
" XXXXXXXXxMMMMMMMMMMMv+XXXXXXXX ",
" XXXXXXXXjMMMMMMMMMMMM,XXXXXXXX ",
" XXXXXXXXxMMMMMMMMMMMM6XXXXXXXX ",
" XXXXXXXXzMMMMMMMMMMMM3XXXXXXXX ",
" XXXXXXXXkMMMMMMMMMMMM,XXXXXXXX ",
" XXXXXXXXfMMMMbMMMMMMM&XXXXXXXX ",
" XXXXXXXXuMMMMqwwMMMMvXXXXXXXXX ",
" XXXXXXXXeMMMM-00MMMMdXXXXXXXXX ",
" XXXXXXXX7gpjg@MMMMMMeXXXXXXXXX ",
" XXXXXXXXXXXXXXMMMMMM1XXXXXXXXX ",
" XXXXXXXXXXXXXXMMMMMk.XXXXXXXXX ",
" XXXXXXXXXXXXX$MMMMM7XXXXXXXXXX ",
" XXXXXXXXXXXXX9MMMMiXXXXXXXXXXX ",
" XXXXXXXXXXXX2nMMMM6XXX@&XXXXXX ",
" XXXXXXXXXXX4mMMMMMMzasm>XXXXXX ",
" XXXXXXXX8cfmMMMMMMMMMMm@XXXXXX ",
" XXXXXXXXyMMMMMMMMMMMMMjXXXXXXX ",
" XXXXXXXXsMMMMMMMMmpMMMrXXXXXXX ",
" XXXXXXX+mMMMMhggt1;flMwXXXXXXX ",
" XXXXXXX:dxmd5<>>o$Xeqd+XXXXXXX ",
" XXXXXXXXX.#X+XXXXXX=98XXXXXXXX ",
" XXXXXXXXXXXXXXXXXXXXX+XXXXXXXX ",
" XXXXXXXXXXXXXXXXXXXXXXXXXXXXXX ",
"                                "
};
