/* XPM */
static char *_[] = {
/* columns rows colors chars-per-pixel */
"32 32 50 1 ",
"  c #1D2E30",
". c #273B3B",
"X c #243B3C",
"o c #2C3D3B",
"O c #2B3D3C",
"+ c #39453B",
"@ c #3E473C",
"# c #464B3B",
"$ c #43483C",
"% c #494B3B",
"& c #494C3B",
"* c #4C4C3B",
"= c #4A4C3C",
"- c #4D4D3C",
"; c #53503A",
": c #55523B",
"> c #57523C",
", c #5A533C",
"< c #5C553C",
"1 c #60573B",
"2 c #66593C",
"3 c #685B3B",
"4 c #6C5C3C",
"5 c #735F3B",
"6 c #735F3C",
"7 c #79623B",
"8 c #7D643B",
"9 c #7E653C",
"0 c #81663B",
"q c #85683B",
"w c #896A3B",
"e c #8E6C3B",
"r c #936E3B",
"t c #96703B",
"y c #A2763B",
"u c #A7793B",
"i c #AB7A3B",
"p c #B07D3B",
"a c #B57F3B",
"s c #B7803B",
"d c #BB823B",
"f c #BF833B",
"g c #C4863B",
"h c #CC893A",
"j c #D08C3B",
"k c #D78F3B",
"l c #D88F3A",
"z c #D6903B",
"x c #D9903A",
"c c #DD933B",
/* pixels */
"                                ",
" XXXXXXXXXXXXXXXXXXXXXXXXXXXXXX ",
" XXXXXXXXXXXXXXXXXXXXXXXXXXXXXX ",
" XXXXXXXXXXXXXXXXXXXXXXXXXXXXXX ",
" XXXXXXXXXXX;yhhhd6XXXXXXXXXXXX ",
" XXXXXXXXXX9cccccccwXXXXXXXXXXX ",
" XXXXXXXXXeccccccccc8XXXXXXXXXX ",
" XXXXXXXX3ccccccccccx-XXXXXXXXX ",
" XXXXXXXX6cccccccccccpXXXXXXXXX ",
" XXXXXXXX;cccccccccccc$XXXXXXXX ",
" XXXXXXXX#cccccccccccc4XXXXXXXX ",
" XXXXXXXX+cccccccccccc8XXXXXXXX ",
" XXXXXXXXocccccccccccc0XXXXXXXX ",
" XXXXXXXXXlccccyyccccc0XXXXXXXX ",
" XXXXXXXXXhcccc@@ccccc0XXXXXXXX ",
" XXXXXXXXXfcccj$$ccccc5XXXXXXXX ",
" XXXXXXXXXplpa0<<ccccc*XXXXXXXX ",
" XXXXXXXXX0,oXXttccccj.XXXXXXXX ",
" XXXXXXXXXXXXX=jjccccuXXXXXXXXX ",
" XXXXXXXXXXXXX2cccccc7XXXXXXXXX ",
" XXXXXXXXXXXXX#ccccccgXXXXXXXXX ",
" XXXXXXXXXXXXXXXX@cccc,XXXXXXXX ",
" XXXXXXXXXXXX%:--Xkccc1XXXXXXXX ",
" XXXXXXXXXXOsccqqXiccc+XXXXXXXX ",
" XXXXXXXXXXXrccgg$zccdXXXXXXXXX ",
" XXXXXXXXXXX&xccccccc:XXXXXXXXX ",
" XXXXXXXXXXXXyccccccpXXXXXXXXXX ",
" XXXXXXXXXXXX>xccccc3XXXXXXXXXX ",
" XXXXXXXXXXXXX*XXXXXXXXXXXXXXXX ",
" XXXXXXXXXXXXXXXXXXXXXXXXXXXXXX ",
" XXXXXXXXXXXXXXXXXXXXXXXXXXXXXX ",
"                                "
};
