/* XPM */
static char *_[] = {
/* columns rows colors chars-per-pixel */
"32 32 61 1 ",
"  c #1D2F30",
". c #273A3B",
"X c #243A3C",
"o c #2A3D3C",
"O c #2C3E3C",
"+ c #3D3E31",
"@ c #2F403B",
"# c #33403B",
"$ c #31403C",
"% c #3B453B",
"& c #3B453C",
"* c #40473B",
"= c #43483B",
"- c #454A3B",
"; c #484B3B",
": c #494C3B",
"> c #4F4F3B",
", c #4D4D3C",
"< c #52503B",
"1 c #56513C",
"2 c #58533B",
"3 c #5B543A",
"4 c #5F563B",
"5 c #59533C",
"6 c #5D553C",
"7 c #60563B",
"8 c #65583B",
"9 c #63583C",
"0 c #6A5C3B",
"q c #6D5C3B",
"w c #6F5D3C",
"e c #725F3B",
"r c #735F3C",
"t c #79623B",
"y c #7D653B",
"u c #80663B",
"i c #8B6A3B",
"p c #8D6B3B",
"a c #936E3A",
"s c #946F3B",
"d c #98713B",
"f c #9D723B",
"g c #9D743B",
"h c #A1753B",
"j c #A6773B",
"k c #A5783B",
"l c #A8783B",
"z c #AD7B3B",
"x c #B17D3B",
"c c #BD823A",
"v c #C3863B",
"b c #C6873A",
"n c #CB893B",
"m c #CD8B3B",
"M c #D18B3A",
"N c #D38D3A",
"B c #D78F3B",
"V c #D88F3A",
"C c #D7903B",
"Z c #DA913B",
"A c #DD923B",
/* pixels */
"                                ",
" XXXXXXXXXXXXXXXXXXXXXXXXXXXXXX ",
" XXXXXXXXXXXXXXXXXXXXXXXXXXXXXX ",
" XXXXXXXXXXXXXXXXX$XXXXXXXXXXXX ",
" XXXXXXXXXXbAAAAANVAAz:XXXXXXXX ",
" XXXXXXXXXX-vAAAAAAn;XXXXXXXXXX ",
" XXXXXXXXXXXaAAAAAA9XXXXXXXXXXX ",
" XXXXXXXXXXomAAAAAsXXXXXXXXXXXX ",
" XXXXXXXXXX>AAAAAA7XXXXXXXXXXXX ",
" XXXXXXXXXX%AAAAAA4XXXXXXXXXXXX ",
" XXXXXXXXXX>AAAAAm@XXXXXXXXXXXX ",
" XXXXXXXXXXwAAAAAiXXXXXXXXXXXXX ",
" XXXXXXXXXXiAAAAA5XXXXXXXXXXXXX ",
" XXXXXXXXXXhAAAAA$XXXXXXXXXXXXX ",
" XXXXXXXXXXuAAAAA#XXXXXXXXXXXXX ",
" XXXXXXXXXX3AAAvvXXXXXXXXXXXXXX ",
" XXXXXXXXXX<AAAddXOOXXXXXXXXXXX ",
" XXXXXXXXXXrAAAyyvBZg0XXXXXXXXX ",
" XXXXXXXXXXaAAA**mAAA2XXXXXXXXX ",
" XXXXXXXXXXlAAAXXnAAn.XXXXXXXXX ",
" XXXXXXXXXXcAAAXXjAAzXXXXXXXXXX ",
" XXXXXXXXXXBAAAXXkAAgXXXXXXXXXX ",
" XXXXXXXXX&AAAAffbAAlt8XXXXXXXX ",
" XXXXXXXXX1AAAAAAAAAAAqXXXXXXXX ",
" XXXXXXXXXeAAAAAAAAAAA,XXXXXXXX ",
" XXXXXXXXXpAAAAAAAAAAA,XXXXXXXX ",
" XXXXXXXXXkNvkcAAAAAAA,XXXXXXXX ",
" XXXXXXXXX$XXXX55aAAnx,XXXXXXXX ",
" XXXXXXXXXXXXXXXX6AC$XXXXXXXXXX ",
" XXXXXXXXXXXXXXXX:AA.XXXXXXXXXX ",
" XXXXXXXXXXXXXXXX=AZXXXXXXXXXXX ",
"                 +AM            "
};
