/* XPM */
static char *_[] = {
/* columns rows colors chars-per-pixel */
"32 32 53 1 ",
"  c #1D2E30",
". c #243A3C",
"X c #2E3E3C",
"o c #303F3B",
"O c #36433B",
"+ c #33413C",
"@ c #35423C",
"# c #39443B",
"$ c #3E473C",
"% c #41473B",
"& c #40473C",
"* c #454A3B",
"= c #43493C",
"- c #484B3B",
"; c #484C3B",
": c #4C4C3B",
"> c #514F3B",
", c #55523B",
"< c #59533B",
"1 c #59533C",
"2 c #5D553C",
"3 c #60563B",
"4 c #64583B",
"5 c #695B3B",
"6 c #6C5C3C",
"7 c #77603B",
"8 c #78623B",
"9 c #83663B",
"0 c #84683B",
"q c #8C6B3B",
"w c #8D6C3B",
"e c #936F3B",
"r c #96703B",
"t c #99713B",
"y c #A2763B",
"u c #A7783A",
"i c #AB7A3B",
"p c #AD7B3B",
"a c #B37E3A",
"s c #B57F3B",
"d c #B6803B",
"f c #BB823B",
"g c #BC823B",
"h c #C0843B",
"j c #C5873B",
"k c #CA893B",
"l c #CD8A3A",
"z c #D08B3A",
"x c #D18C3B",
"c c #D58E3B",
"v c #D88F3A",
"b c #DB903A",
"n c #DD923B",
/* pixels */
"                                ",
" .............................. ",
" .............................. ",
" .............................. ",
" ........lnnnnnnnnnnnnnn>...... ",
" ........knnnnnnnnnnnnnn+...... ",
" ........knnnnnnnnnnnnnl....... ",
" ........jnnnnnnnnnnnnna....... ",
" ........ynnnnnnnnnnnnne....... ",
" ........cnnnnnnnnnnnnn8....... ",
" ........vnnnnnnnnnnnnn3....... ",
" ........hnnnnnnnnnnnnn;....... ",
" ........unnnnnnnnnnnnno....... ",
" ........tnnnnbnnnnnnnx........ ",
" ........gnnnn199qww975........ ",
" .......#xnnnn#................ ",
" ........tnnnnO................ ",
" ........0nnnn:<<<<<*.......... ",
" ........9nnnnznnnnn9.......... ",
" ........-xnnnnnnnnn4.......... ",
" .........ryypjbbnnns.......... ",
" ..............++lnnn#......... ",
" ...........=,,..jnnn$......... ",
" ..........innn..tnnkX......... ",
" ..........9nnn66xnnt.......... ",
" ..........@xnnnnnnb%.......... ",
" ...........9nnnnnnu........... ",
" ...........+knffda2........... ",
" ............&,................ ",
" .............................. ",
" .............................. ",
"                                "
};
