/* XPM */
static char *_[] = {
/* columns rows colors chars-per-pixel */
"32 32 60 1 ",
"  c #1D2E30",
". c #243A3C",
"X c #293D3A",
"o c #2C3D3A",
"O c #2B3D3C",
"+ c #2E3E3D",
"@ c #32413C",
"# c #35423C",
"$ c #3F473A",
"% c #38433C",
"& c #3D453C",
"* c #42483B",
"= c #43493C",
"- c #474A3C",
"; c #4A4C3B",
": c #4C4C3B",
"> c #4E4E3C",
", c #53503B",
"< c #56533C",
"1 c #5C543B",
"2 c #61573A",
"3 c #65593B",
"4 c #63583C",
"5 c #67583C",
"6 c #695B3B",
"7 c #6D5C3B",
"8 c #695A3C",
"9 c #6F5D3C",
"0 c #735F3B",
"q c #735F3C",
"w c #73603B",
"e c #77613B",
"r c #74613D",
"t c #79623B",
"y c #7B643B",
"u c #7D643A",
"i c #7F653C",
"p c #80663B",
"a c #86683B",
"s c #886A3C",
"d c #916E3B",
"f c #95703B",
"g c #9B733B",
"h c #A3763B",
"j c #A9793B",
"k c #AC7A3B",
"l c #B07C3B",
"z c #B57F3B",
"x c #B7803B",
"c c #BA803A",
"v c #BF833B",
"b c #C2843B",
"n c #C6873A",
"m c #CB893B",
"M c #CC893A",
"N c #D78F3B",
"B c #D88F3A",
"V c #D7903B",
"C c #D9903A",
"Z c #DD923B",
/* pixels */
"                                ",
" .............................. ",
" .............................. ",
" .............................. ",
" ..........uMNVBBMlto.......... ",
" ........X9ZZZZZZZZZm>......... ",
" .......OkZZZZZZZZZZZN;........ ",
" .......$ZZZZZZZZZZZZZn+....... ",
" .......:ZZZZZZZZZZZZZZa....... ",
" .......2ZZZZZZZZZZZZZZM....... ",
" .......<ZZZZZZZZZZZZZZh....... ",
" .......-ZZZZZZZZZZZZZZp....... ",
" .......@ZZZZZZZZZZZZZZ8....... ",
" ........NZZZZNNNZZZZZZ%....... ",
" ........cZZZZl::ZZZZZj........ ",
" ........gZZZZg..hZZZZ6........ ",
" ........0ZZZZy..emBZZw........ ",
" ........>ZZZZi....&qp1........ ",
" .........mZZZdss5#............ ",
" .........gZZZZZZZZnlpX........ ",
" .........qZZZZllMZZZZr........ ",
" .........3ZZZC...cZZZf........ ",
" .........1ZZZZ...zZZZa........ ",
" .........:ZZZZ..OvZZZ4........ ",
" ..........vZZZddbZZZZ7........ ",
" ..........pZZZZZZZZZZ0........ ",
" ..........$mZZZZZZZZC=........ ",
" ...........,CxBBZMld*......... ",
" .............................. ",
" .............................. ",
" .............................. ",
"                                "
};
