/* XPM */
static char *_[] = {
/* columns rows colors chars-per-pixel */
"32 32 47 1 ",
"  c #1D2E30",
". c #243A3C",
"X c #313E3B",
"o c #33403B",
"O c #33413C",
"+ c #39443B",
"@ c #38433C",
"# c #3E463C",
"$ c #43483B",
"% c #464A3C",
"& c #4D4D3C",
"* c #504E3C",
"= c #55523B",
"- c #53503C",
"; c #5E553B",
": c #61573B",
"> c #65593B",
", c #66593C",
"< c #695B3B",
"1 c #6D5C3B",
"2 c #735F3B",
"3 c #725F3C",
"4 c #73603B",
"5 c #75603B",
"6 c #79633B",
"7 c #7C653B",
"8 c #83663B",
"9 c #896A3B",
"0 c #8D6C3B",
"q c #96703B",
"w c #99713B",
"e c #9E743A",
"r c #A0753B",
"t c #A4773B",
"y c #A8783B",
"u c #B37E3A",
"i c #B67F3A",
"p c #BB813B",
"a c #BD833B",
"s c #C1853B",
"d c #CB893B",
"f c #CD8A3A",
"g c #D08C3B",
"h c #D58E3B",
"j c #D7903B",
"k c #DA913A",
"l c #DD923B",
/* pixels */
"                                ",
" .............................. ",
" .............................. ",
" .............................. ",
" ......1wufklllllllllllll&..... ",
" ......9llllllllllllllllg...... ",
" ......,lllllllllllllllle...... ",
" ......$llllllllllllllll-...... ",
" .......hllllllllllllllp....... ",
" .......illllllllllllllp....... ",
" .......rllllllllllllll7....... ",
" .......9lllllllllllllhO....... ",
" .......4lllllllllllllq........ ",
" .......;llllllhhpllll=........ ",
" .......+85=%$#..8llll3........ ",
" ................ullld......... ",
" ..............++klll9......... ",
" ..............99lllj@......... ",
" ..............ddlll0.......... ",
" ..............lllll*.......... ",
" ..............llllt........... ",
" .............Xlllh+........... ",
" .............<llly............ ",
" .............rlll>............ ",
" ............#klls............. ",
" ............6lll2............. ",
" ............alkko............. ",
" ...........:llii.............. ",
" ..............$$.............. ",
" .............................. ",
" .............................. ",
"                                "
};
