/* XPM */
static char *_[] = {
/* columns rows colors chars-per-pixel */
"32 32 50 1 ",
"  c #1D2E30",
". c #243A3C",
"X c #293C3B",
"o c #2C3D3B",
"O c #283C3C",
"+ c #2E3F3C",
"@ c #2F403B",
"# c #36433B",
"$ c #32413C",
"% c #35423C",
"& c #3F463B",
"* c #38433C",
"= c #43483B",
"- c #464A3B",
"; c #41483C",
": c #504F3C",
"> c #52503A",
", c #55523A",
"< c #53503C",
"1 c #5B543B",
"2 c #5F563C",
"3 c #6F5C3C",
"4 c #705E3A",
"5 c #75613D",
"6 c #79623B",
"7 c #82673B",
"8 c #84683B",
"9 c #8B6B3B",
"0 c #8D6B3B",
"q c #8E6C3B",
"w c #936F3B",
"e c #96713B",
"r c #98713B",
"t c #9E743B",
"y c #A3763B",
"u c #B27D3B",
"i c #B57F3B",
"p c #B7803A",
"a c #BA813B",
"s c #BF833B",
"d c #C1843B",
"f c #C6863B",
"g c #C7883B",
"h c #CA893B",
"j c #CD8B3B",
"k c #D28D3A",
"l c #D68E3A",
"z c #D88F3A",
"x c #D9903A",
"c c #DD923B",
/* pixels */
"                                ",
" .............................. ",
" .............................. ",
" .............................. ",
" ..........$7akxxji7#.......... ",
" .........*hcccccccck-......... ",
" .........8cccccccccct......... ",
" .........rcccccccccca......... ",
" .........qcccccccccci......... ",
" .........6ccccccccccy......... ",
" .........2cccccccccc0......... ",
" .........=cccccccccc3......... ",
" .........Oxccccccccc:......... ",
" ..........accc44lccc@......... ",
" ..........eccc..sccf.......... ",
" ..........5ccc..dccy.......... ",
" ..........<ccc33jcc6.......... ",
" ...........yccccccfo.......... ",
" ...........1lccccc7........... ",
" ...........pcczzcczX.......... ",
" ...........dcg&&ccc$.......... ",
" ...........ucx$$xcx........... ",
" ...........ycc;;ccj........... ",
" ...........wccffccs........... ",
" ...........>ccccccq........... ",
" ............9cggcj%........... ",
" .............+OO,%............ ",
" .............................. ",
" .............................. ",
" .............................. ",
" .............................. ",
"                                "
};
