/* XPM */
static char *_[] = {
/* columns rows colors chars-per-pixel */
"32 32 57 1 ",
"  c #1D2E30",
". c #243A3C",
"X c #2A3D3C",
"o c #2E3F3C",
"O c #2F403B",
"+ c #36423B",
"@ c #32413C",
"# c #37433C",
"$ c #39443B",
"% c #3B453C",
"& c #3E473C",
"* c #43483B",
"= c #454A3B",
"- c #41483C",
"; c #474A3C",
": c #4E4E3B",
"> c #53503A",
", c #54513B",
"< c #53503C",
"1 c #57523C",
"2 c #5B543B",
"3 c #5F563B",
"4 c #59533C",
"5 c #64593B",
"6 c #685A3A",
"7 c #6E5D3B",
"8 c #6F5D3D",
"9 c #715F3B",
"0 c #7A633B",
"q c #7B643B",
"w c #7D643B",
"e c #83673B",
"r c #85683B",
"t c #886A3B",
"y c #886A3C",
"u c #95703B",
"i c #97703B",
"p c #9C723B",
"a c #A2763A",
"s c #A7793B",
"d c #AA7A3A",
"f c #AD7A3B",
"g c #B27D3B",
"h c #BA803A",
"j c #BD833A",
"k c #BE843B",
"l c #C3863A",
"z c #C6863B",
"x c #CC893A",
"c c #D08B3A",
"v c #D28C3B",
"b c #D58E3B",
"n c #D88F3A",
"m c #D7903B",
"M c #DA903B",
"N c #DC923A",
"B c #DD923B",
/* pixels */
"                                ",
" .............................. ",
" .............................. ",
" ..............11@............. ",
" ...........5hbNNNbjo.......... ",
" ..........9NNNNNNNNxt......... ",
" .........1bNNNNNNNNNNp........ ",
" ........OMNNNNNNNNNNNm-....... ",
" ........eNNNNNNNNNNNNN#....... ",
" .......XvNNNNNNNNNNNNN3....... ",
" .......*NNNNNNNNNNNNNNw....... ",
" .......=NNNNNNNNNNNNNNi....... ",
" .......4NNNNNNNNNNNNNNs....... ",
" .......:NNNNNN88nNNNNNf....... ",
" .......$NNNNNv..tNNNNNf....... ",
" ........zNNNNN++qNNNNNp....... ",
" ........wNNNNNMMNNNNNNe....... ",
" ........XlNNNNNNNNNNNN;....... ",
" .........$lNNNNNNNNNNk........ ",
" ..........X2er66aNNNN9........ ",
" ..........&>33..wNNNN#........ ",
" ........2xNNNN..iNNNdX........ ",
" ........@NNNNN22MNNN0......... ",
" .........sNNNNNNNNNd.......... ",
" .........<NNNNNNNNM$.......... ",
" ..........yNczNNNzg........... ",
" ...........3%#,,%:7........... ",
" ..............==X............. ",
" ..............##.............. ",
" ..............oo.............. ",
" .............................. ",
"                                "
};
